<?xml version="1.0" standalone="no"?><!DOCTYPE svg PUBLIC "-//W3C//DTD SVG 1.1//EN" "http://www.w3.org/Graphics/SVG/1.1/DTD/svg11.dtd"><svg width="1600" height="1600" version="1.1" xmlns="http://www.w3.org/2000/svg" xmlns:xlink="http://www.w3.org/1999/xlink"><g><path d="M512.1566927009447,1009.9408894127118L520.9645686947044,1010.4258356181381L527.7831410181265,1014.6519831986225L533.4134031391778,1021.5045728165423L540.079852990147,1023.8616011214617L541.5665018060724,1029.6448732738208L536.7503319390208,1031.8998811511847L536.2876971882737,1050.9837039324339L537.8991691299605,1062.6227286900976L536.5476829048146,1068.4213205715932L539.4034346534745,1086.1096049545158L539.5160167240564,1095.2770849051594L545.7455049669114,1106.7728808890388L556.1084609589883,1116.4758198057534L569.1448270147418,1132.11927452893L572.1702810336978,1141.0389089912642L580.8600564767363,1152.4130992084392L582.6925724560972,1157.798036201537L590.0404018202626,1162.6006798470044L589.4699370693779,1166.12434632855L592.627620308229,1184.3748151956534L567.2748631345671,1212.6396629982337L543.2218455380987,1244.5013404635538L541.0040038504044,1249.2027964419976L530.0255452615295,1262.0549237388477L516.0784665611521,1275.0976266882208L500.68371781888163,1293.3156120867643L487.8842490930333,1304.5787762853142L480.2200426896082,1317.269894763187L474.56922583070644,1318.6959436134493L468.6531480092756,1330.4120429705945L461.80276090616053,1334.058141731628L450.09903553598434,1352.750444932928L443.93599883574456,1349.0965003928868L435.9309724956039,1358.6451534140506L429.1141635484867,1371.6433736190666L418.8518829302053,1371.704883279337L410.8315346664604,1379.5587652015965L404.358926882698,1381.2971377266804L397.85459160550613,1388.8629006830743L380.2543716582205,1419.716184478777L372.48752290047,1430.5974116524449L365.3368279696376,1437.4043096506794L358.12101735894487,1436.4553301323904L353.22466872849265,1421.2281012367748L355.014426087242,1416.4577401009155L368.3334810984157,1417.2043323953403L372.8840730537165,1414.8339648818364L387.6493595403402,1397.5072767409438L388.4962467441992,1387.9078223330434L382.13881728356097,1378.8526822082058L372.1562086345759,1375.455889890436L364.5974883983959,1377.6384577234276L358.26135734099313,1382.4952420041081L348.82712123404525,1393.082716748817L350.0347876110978,1405.3831919091172L340.2325100510511,1415.0567337154353L333.1947838997822,1418.4269756276626L310.9422278865931,1438.6051273863995L303.33202638191,1443.6031523472338L294.2628887090043,1446.2617938016192L272.67872537848126,1461.3847968758491L269.43964957121693,1459.4368511388311L256.68346706502393,1469.0859645453165L252.3107450470809,1474.6505057623435L242.95765744528416,1469.738883111917L232.62435071752287,1474.6663358418155L219.34311717763865,1489.1449426412L207.42733097362145,1505.9810655978217L200.63837314927798,1508.4680489002494L192.09151529657117,1503.069686136907L189.02391920223283,1497.4602802229056L170.56437712685727,1501.8126160110696L162.60970119266676,1508.4583882615552L157.87388629117368,1516.788844028284L149.01107797590032,1523.7915975023934L143.58868614709706,1532.2139884687203L122.62766352212702,1538.092192619748L116.92543082153702,1536.234056906862L106.15162776043235,1537.9623863970046L94.95567144613892,1542.4849933872465L82.73018886747752,1553.2794298178342L69.8939503108453,1553.6667286758602L63.8889123672011,1558.5516255453986L57.30551894355938,1557.0227713771164L51.9985919242464,1548.550672392943L45.83423272899154,1543.2678964739607L40.32111330518842,1529.1847083254543L40,1515.9437741936417L45.805664364158474,1509.3556110819918L48.99777969108766,1495.5248751158651L59.444392999990555,1485.5138603571395L61.54625045128569,1488.2024644515186L70.24399262592135,1478.1954129372607L75.68637753185942,1478.8447579357598L81.91952203469941,1471.686746450985L74.89857163211082,1465.4557618036342L72.81331968555378,1451.821997278079L77.62969606446052,1433.7662983287591L75.80923306402053,1420.4171310150996L68.22188582751471,1410.9208535894286L66.76890487837966,1398.745553870307L60.72149522944005,1389.8116968183313L64.89212797227992,1380.5540447708336L71.69122531477694,1373.4468903291272L76.72522664536245,1375.8162649325386L91.14836319507731,1363.4358837729087L91.52377998496297,1356.4691342554288L101.50865871373503,1354.416063791461L107.1756909952287,1344.8646924428467L119.57115989865667,1342.542313434882L136.87130277448682,1348.230922930583L154.35935792755868,1341.074654787837L160.21874553549276,1327.075969061174L159.61178525706725,1316.219136947213L166.41408330669526,1296.7080302136892L174.35818834181907,1261.7544721211016L174.15597754492057,1255.2508337038744L178.44311564525322,1243.398634278361L177.89793750429817,1227.1846638292773L179.77985423220775,1221.531574929948L190.53323977962646,1208.5748134882015L197.12015642042752,1196.2239552639367L197.69196761028707,1191.8240671564708L193.6563450601269,1178.5408188893634L184.14726670745438,1163.2348780063912L182.48520989569226,1154.950343383447L183.44500222927513,1136.8821656786895L189.04380286345315,1125.5365115051682L185.67401401861127,1100.0648088472954L187.24334689858006,1078.9851633541693L189.53910462591386,1071.2689191421669L199.1131215568181,1062.003930841398L207.03366951550254,1049.2709557635244L226.66025809126484,1028.211419404397L236.34818502343222,1023.1113047286053L246.3399271953637,1024.502795472712L247.83900420925966,1031.359587589046L260.50460018158947,1022.0105165973364L267.8155615523178,1033.929123989452L274.4647829723856,1032.6135444739484L283.86240469815124,1035.8908196201373L293.05316756703996,1044.6985852915968L305.4066668895254,1047.5824533530977L319.3034443600208,1048.684657045349L327.24661950816034,1047.7601139789913L330.01851408468855,1044.2063267559279L340.78653578272446,1042.4581861715706L347.74236862811455,1039.008244245837L369.47520391991674,1033.2566971818742L383.2970742982696,1038.8158236712916L397.3977709871513,1039.5179069341393L404.80048634295747,1034.5686498387076L416.6651202215201,1033.9929412140045L432.9312542461674,1021.5517767284182L439.21406867484643,1019.799117915798L455.0680768440994,1019.558879640128L463.2092492562954,1021.6332947188057L478.02911450133195,1019.8193576353369L504.9504846263275,1007.746201560687ZM691.3232913317215,847.0725740801427L698.2462947003573,848.9517463672382L703.8310314501081,855.0459238488693L701.1324639824415,865.8199495677545L693.247809725907,868.7730134961603L674.8631708727634,879.8113469102827L669.6881760350292,880.9184350965661L664.4033529496471,876.3572865416063L665.5015775980933,872.0667035512452L681.8501479628711,851.8076510189858L683.957613468644,847.5163523614756ZM896.9538000346679,573.1704482792993L894.0557319081312,575.8618833953515L867.440690116134,616.4484450242308L852.6828227544704,634.4955125606793L845.0778508250908,637.7786367366789L864.369623141748,607.8082035458065L876.9415983798722,590.4843424049031L888.9328433459423,570.6726629901677L896.06827829617,562.3411276782863L900.9250250062584,567.9205778068572ZM953.2681705238459,457.90295010092086L956.070448578526,463.2642501384835L969.406422098366,471.67031538131414L973.9257838787314,480.93308191694086L970.2411519127168,489.9937658641429L960.9813343281407,499.3653110798332L951.6725089148915,512.8502620470535L949.027916755421,520.6342618999188L944.5512178537381,525.1073226520675L933.5302918622873,529.8513376851624L927.6452972142536,525.3011821559048L915.60865962837,522.5865840516053L913.7267907465261,512.887962288718L925.3792158928197,495.4979349829082L937.3039121922827,490.2522381619783L934.2076159913347,485.5927423774847L937.9984071914458,474.57284655672265L936.3966993849599,467.7836435319332L942.4581786256613,453.7294851524639L949.7126396536605,454.2095978347643ZM939.6925385283259,178.94377729395637L950.7729037877085,182.09639585469267L950.4878078936558,191.8539929862891L957.1199571491488,194.85778800590197L967.360000208098,190.2511691818654L978.5088174580351,193.52328260504873L983.0143020184408,198.37829792752746L981.9468528771147,209.80235360836377L973.9793464738061,225.83023202850018L965.3485771954865,236.193492665363L958.5927878964504,247.4623284722038L950.6762611906369,255.47850433463464L947.2843974949915,264.9500283667294L930.4385184540674,296.71805099467747L927.4265555574761,305.8500569180178L916.1113205390617,333.04164465898066L915.4095887110659,341.59914450420183L917.4292863160097,362.7849874882668L919.1318386499861,398.70482868881663L917.5941224214043,426.251851733512L919.7219815346457,433.37332839507144L926.3084427061215,442.9387350103352L932.1276766268071,457.04644632936106L932.1050389623497,472.71351911796955L928.9094783261621,480.57943712113774L913.4226344363251,493.25217181947664L907.1344439185735,507.4259696890658L902.4308340817042,514.4135837493814L891.9280362812489,523.8325832647097L892.050680793775,532.8863366060541L896.4233345939734,547.2965712842997L893.8713300042521,552.7643100873975L878.1142286031817,573.839383436396L862.302908532098,598.0087930163718L849.222009904757,613.6791401311639L832.3513720213521,638.3293827972957L815.7855833732526,664.4267552067467L812.2121727849784,681.1357513756375L812.6659801662307,693.5139631648781L807.3150494384942,695.2725852802105L810.1265510117565,709.8753194855235L815.4249259723067,717.2343482030847L815.393063554125,724.1078470741631L808.4655784787577,760.28648213204L801.8295805439595,779.9597519694653L796.8198681850596,785.0610153800226L788.6223840063045,787.487287005817L769.6556058622634,789.9032823670714L768.088513199399,786.9595879755798L744.6622691794512,791.437706769444L728.106210263529,802.6577908292529L706.6556311731205,819.7614504219673L695.7151964880828,819.9644691439753L686.6535486715886,807.9666031319066L684.2007202166715,801.0680456760456L689.1186365564357,773.7980882842967L691.4006348741743,755.6655303716834L700.988373558893,756.7789574853086L705.9988468833197,720.9110713184054L697.7514633064102,720.0668742794951L698.7784369356497,712.0336473575153L706.6041688500104,712.8722076824051L708.7074377565764,681.2967007626139L713.2663500831364,660.6331381288765L712.3633077609629,650.1173968941439L709.9218150832187,645.9665240395698L716.3080602991505,626.5898238688242L728.6157447415834,601.9680590511125L734.5439378615536,593.4826810558443L740.2751618627362,589.3190263326687L746.9381889855329,576.5296313105209L747.3334727098891,570.3686836368579L762.1210750932682,542.2134960627882L767.7736374911462,534.5067822053097L770.2674147824251,526.9729591342912L837.7641075683979,400.3310363072087L852.7947581845949,378.22831116153975L848.3544349979844,374.88642492343206L854.6748383743658,362.4578506327525L862.1439575923271,359.7606068951136L874.2193450246011,336.0313861221366L878.9822859834136,316.1831513941288L885.3303423270792,301.5383174477902L882.8060261792655,278.5261408521328L897.0613880663315,265.29119734535925L901.4065552280289,255.21001841430552L908.9439918194042,242.7110893870995L923.088814493266,215.497950572666L924.5109321722612,202.54523304748L932.5093592037942,185.78580176306423ZM945.3982858000586,772.1114886282012L950.1482914870666,765.0104088935477L942.4533990953748,742.2999011233915L945.0792991961737,735.3431331260654L938.6020784982568,730.2938921156747L933.1268652486057,722.4145560533507L911.4029109731648,715.7259149958263L904.1990766199249,709.5906663989299L896.8354383314315,692.9968459668453L869.0877528973218,680.2134376070171L853.8812513085152,679.9989353389828L844.9366767395977,685.2898972023977L842.5651362253252,678.3241167281813L845.1679960227243,666.0571590829932L855.7472423131497,646.3414678507834L870.6527031194186,625.7654749896901L892.2655849737724,589.6464194288419L898.2872807404533,580.8867762349837L906.8238023993526,574.3376189651026L914.9617342269373,570.8969262940518L916.1592173039883,563.45099895983L908.8621378972211,560.5532751904393L908.3544556705108,551.2945869048999L915.4272336246488,540.9396537693683L924.4695811771753,541.2165607052157L929.6997947684429,547.2003095737018L945.2143647052146,536.7800872274966L965.5622101680567,514.7250720984302L977.2062749463086,499.56494100537384L984.7418999081015,493.8849034362065L1010.9057674469586,500.9544251450279L1020.1894048456467,509.6121289379953L1023.2305025146284,514.705577219167L1022.5733586963458,522.1898211401713L1034.6185855661713,530.5588438012346L1032.2401079563197,534.4858839949302L1038.9462053267087,541.699086571316L1040.6540488495552,557.1126149200718L1054.7655114631737,554.7779372798686L1053.10595110023,533.9211828148109L1062.839757608207,531.5301953678136L1071.2349757717045,522.7570330922317L1079.9588081889092,528.2733075280266L1090.7255982335453,511.87494973567664L1095.7174733394268,520.758255578723L1087.092128688284,530.7838858879404L1108.6005650137336,545.6508701047569L1135.0774165843734,562.160729266936L1130.553147960325,572.3335988049221L1124.818198569914,579.6966016102815L1114.0698344127634,581.3897605436214L1123.0216558797163,597.3267883792287L1129.3004868809958,602.0310508476978L1144.4752187194008,608.7100362913916L1152.4371927183206,605.8928994938906L1165.0080828807754,595.0641712495417L1165.4917135380558,586.5190644326794L1154.9147829748495,581.8608433416812L1151.6240235320965,573.0018244781531L1152.7104504339693,567.6671603274881L1149.0879939095587,562.6952365150792L1151.8071487240195,556.5935871262627L1151.8606645758764,541.30026463783L1148.4583382405922,525.154061931069L1134.2373226895916,526.3416564804211L1129.0567869824904,521.6698402100592L1124.3945407161802,512.0708610475413L1129.8216456155646,509.75406410111464L1135.9304056886974,502.74617853565724L1141.545579410797,481.7034356610093L1150.9548186947172,485.4184708176181L1152.6940656289612,478.004877929925L1159.4725365104687,475.3136839210347L1167.1823430555469,479.7397895450122L1174.9795580835669,473.01894862705376L1181.01808903079,473.22207596036606L1185.831520352975,488.61130022109137L1184.3862389354106,499.33871104291757L1193.6364763186878,503.15370471816277L1201.311337294596,492.09441257923027L1209.5776566450381,487.75739090621937L1209.5248945088028,479.9137599259557L1206.1540584325721,474.26479716037284L1217.7002672456185,471.0410191005212L1228.898517643849,459.8515854420548L1233.0077977713681,458.6489539335889L1238.758240969131,464.19591032905737L1251.0988521680183,471.9334273436398L1254.0193820786462,470.88284628259134L1271.8060150518465,475.6364659378305L1276.8935427212687,474.51403946141363L1290.3475426246912,476.65055065607885L1301.877449014467,482.9428403149941L1300.6067861245915,492.90308658758295L1306.4571342206655,502.54311144759413L1313.0825035101589,496.9833718505106L1325.7163645919782,496.94193883478874L1338.3717869591621,492.13968647821457L1339.436383900065,484.99391204107087L1337.1528390261244,477.6901439767098L1342.9563655180693,474.07726208583335L1351.7305674810345,476.0300294313056L1357.7541038694997,483.58123663061997L1367.0141880452438,503.9042832865671L1357.5202442206914,513.0996456576686L1373.6680726462844,536.8024781763088L1376.8174342269303,546.6082428904774L1384.515376361704,560.6483162845834L1399.183301223447,577.5486775684403L1399.624505731942,580.541757716448L1409.7763674605767,585.1625687110936L1410.4904584991891,572.0628184264642L1408.1091854816013,565.4570060571132L1414.1898689426425,559.3975298456498L1409.379543963204,547.7813931249548L1412.80586329313,535.5732985140348L1421.364333263693,524.3161903195432L1439.6451595633143,539.8180920390296L1502.4965334707776,589.9877856153471L1538.8900343414339,621.5184124649095L1555.8119370431973,635.085390149703L1560,683.1048585721874L1557.8156141394802,685.9804203323147L1538.8420822749877,724.2791368766921L1509.6789967164268,730.617259417806L1489.3978251454325,737.7728646126052L1476.6066053772947,744.5182265935873L1479.7113115538043,755.3483248954872L1485.618630344749,785.945040906081L1485.3919908673558,790.3401625951519L1487.47237469342,866.4173597776389L1488.7898254390257,898.4507703424024L1483.426751257211,918.0246158704103L1481.3404539989738,945.9334612301609L1482.2006059633504,962.8343717108946L1486.2301182937472,972.1906640456L1490.1472913914813,989.9214425846003L1489.4501588184157,998.046146567096L1475.5713111240766,1003.8750001648732L1462.2890910543972,1006.1137276555819L1444.9948184314508,1016.2967455367034L1444.309669829264,1033.2164078183414L1441.326729212117,1047.3710690922453L1429.5045123412688,1052.1467880223936L1431.94137968916,1039.662543917162L1428.5344306917214,1035.9803462702257L1425.6309438442777,1056.8054945926415L1414.1367117127231,1064.0577416793385L1396.6773317922086,1071.6430650259717L1376.4153054315557,1082.883272476116L1371.2074376424198,1093.8218587719603L1370.007367329658,1103.4660768220783L1363.9781329224838,1104.2721910947294L1355.37673736475,1092.057989392575L1348.6512172771072,1085.298354264436L1340.6390409912701,1086.481654134317L1327.6274962997636,1109.5883062364592L1320.2027706106326,1115.404346241994L1324.0608506202948,1128.4094109573052L1323.012300223932,1132.7477968028106L1310.676594716388,1138.7313569574326L1309.890502869016,1147.7045130256156L1297.7879697211579,1146.9780250911426L1282.927006059793,1142.7707411689626L1286.905322446049,1128.9132766308612L1291.7345155832131,1124.811140681064L1292.5523991374823,1118.5256835852342L1299.8793993153106,1102.813931718585L1312.285314475476,1103.4819470868097L1329.7139226033378,1083.5492871093738L1331.985065303374,1075.8783829087042L1313.6744786983509,1062.2486009802087L1308.638747638563,1061.734151474142L1305.8458766214635,1055.4432189645886L1266.2888326093725,1034.0850857514306L1260.9805929748786,1030.321592204331L1238.8772756942117,1018.5236822064908L1233.9480775981535,1016.8755741870846L1224.7195588618972,1003.8875734099129L1220.7230764684175,982.3385042369482L1223.318996834533,971.2310552415147L1220.442960765054,967.9182256204076L1216.4351883629083,983.8470885543502L1217.7790117003885,1006.050371824298L1210.0804041029687,1008.1041324128455L1205.568166733663,1006.476805418526L1200.055928263712,998.3538970089867L1198.014482566455,1011.532237687381L1187.1307659101165,1009.3901084141689L1178.6588835141938,964.1465504772204L1175.90858334169,966.3139643449686L1186.3452734934613,1020.4206181672926L1149.1506741682051,1025.2534965107334L1142.799446321859,1019.0103929928155L1141.4197977415317,1012.4508107440779L1146.277604578423,1002.8195330082381L1131.6594612836332,999.3230360583984L1124.5556968763453,992.0825334687834L1122.4190116494747,986.082771534042L1113.1534611580587,976.5125282070367L1113.292708165524,983.553360754886L1117.811958352808,985.2155904920364L1121.1809203483433,989.2131398016936L1123.2917167190546,994.3737360023079L1128.807982786947,1001.92119252868L1124.9003314952683,1013.8655548496463L1128.1722451614846,1026.8456133039144L1114.9090495996077,1029.6706223268702L1100.3516700361736,1040.514202005812L1096.665092903486,1036.7078202900884L1089.803862882854,1020.8922449618403L1083.765686446876,1024.774552116607L1092.7905031562273,1040.598359266878L1094.2167985456163,1047.4423223417543L1083.4750095627273,1053.4137593732448L1070.3159726164786,1044.176353841147L1056.3262052273697,1023.6449375643278L1055.4476614176037,1031.1230606465542L1073.4426741488294,1054.5080077124585L1070.527460234113,1059.563858046633L1057.3501832469176,1070.164522668987L1054.5076228651903,1077.608621600899L1045.828888335779,1081.5814349855937L1037.040193265615,1089.4076935264748L1029.9554766658637,1099.9293635713984L1021.9189167860573,1102.833058710763L966.1764191573125,1068.5284256965097L963.4676339115979,1072.2444752224546L999.9893407315637,1094.555187576305L1008.8223646576799,1106.0790560949827L1020.4521196761743,1106.8636801126995L1022.7847408773082,1112.9072898732848L1020.0172062481088,1122.3587027256726L1023.2999777361862,1132.1480618373607L1031.2808104105275,1134.402064368449L1038.6738955143967,1142.005182588764L1031.928082058648,1151.017612482683L1029.1651090389855,1159.5554413867649L1019.670414346459,1163.7672658227093L1011.1733577060895,1164.2339407647378L1008.3422661659524,1159.1269873394922L1009.5176063223448,1146.4277618236374L987.8411641130531,1121.3632571064518L984.3964809601517,1124.2977560628788L1004.6856881127129,1146.785603802855L1006.130288269589,1162.0952456214L996.4748364050757,1166.3539758456754L994.3789094897772,1161.0341311170487L983.791346638163,1161.7955269355443L987.9371770493613,1169.3483442649595L980.8307814195864,1171.3836543661018L973.7159304318843,1169.8474523986515L964.9493682077283,1159.4409567717812L967.7192971625085,1141.3714042215142L961.3629811757833,1146.9675738884544L957.3323415957462,1156.1011713011249L971.2406722868133,1173.6810971533705L985.9467835065025,1178.1906829594227L989.6964759807216,1175.768883314362L1002.771917509439,1174.5375603940338L1014.4310694719461,1170.9210324051965L1023.6372216320278,1172.8322756861162L1034.2674611174955,1171.3733710233064L1044.5054427379584,1165.1055499158683L1052.6941796743781,1165.4646340705804L1060.7673384706704,1188.1285308405058L1063.24961181555,1203.492158867477L1069.580414603962,1230.0874198366946L1074.2462908897958,1238.4888749632228L1066.0510563643813,1255.6755790525058L1053.6336852530915,1261.088868390565L1035.0448688574108,1263.7407738861511L1022.7826336926668,1267.7086306245183L1018.9244072137557,1258.032567360351L1019.8787857154271,1244.83129658681L1016.220880838524,1234.433851326903L1011.6121180231062,1227.2529112844204L999.0240914004305,1231.1447743921308L978.0210833108811,1232.8766420643951L979.2270484853868,1216.026379019575L976.2623961594912,1200.018718898209L969.3125092191506,1188.4240095827845L951.9779128519777,1177.075075969362L942.1069731342084,1184.230450622883L930.0025472673826,1174.1863271972397L924.5810026782152,1176.3468805342272L942.1773330942895,1190.1372429275943L951.0958201605426,1201.848224419984L954.9482669057412,1202.9082477607299L970.8455072552065,1224.534704002057L960.8379674548066,1233.0004558487854L942.9173379849651,1235.6937935279857L933.6302389450514,1224.1890010521456L929.4053048150082,1228.5688024474948L941.4538777279972,1239.2624284407939L955.901075958923,1239.1943273258512L967.6975619103989,1233.6310466409486L974.4510372864554,1234.4087936744909L975.4244006382197,1244.9590638905647L969.5326745130742,1250.4621818763262L947.1266010326513,1243.580996116827L929.5797041417319,1243.719043559162L925.9478800566028,1246.1273526455334L906.3792882245547,1243.904307667166L878.3637955648693,1243.345551233826L864.3500757750159,1245.1356861808163L864.8718982262192,1248.6831453938212L874.7265950683491,1247.5510829670238L893.737790610682,1252.332377201732L921.7225959887231,1251.8155449519982L925.6480323465395,1269.3865471422323L924.4367311635375,1271.5638475152373L894.3520338397688,1272.5659772341605L866.9224904807768,1276.679516791046L861.8541002995897,1276.1472448052955L823.1348968235202,1280.6028042864928L803.6847833717575,1284.8037943092058L796.4530575281963,1285.0654732566618L755.9150033879594,1290.4629493032407L736.7771750950965,1290.0973583459854L718.9866098874272,1279.6188167124055L709.6801173426951,1278.0470338373561L704.3734910561006,1274.25439583158L701.5940302180059,1263.3691590717062L704.3641357435096,1257.2411401551217L715.0165490174843,1250.006110192946L720.6831129263154,1248.7047115542227L729.1673520046548,1250.6866819844581L742.3476649206937,1250.606976821262L743.3233020678946,1253.7272602574958L767.307279303196,1260.038780386356L769.9899383070556,1257.0319741836865L760.0943775466327,1251.958405756799L763.6291662084444,1240.6624454935954L747.9978830490857,1248.181434450089L736.7244461301782,1244.7794296808424L742.2849744829906,1232.3324889729265L753.4024984161122,1224.550639082794L749.9350112710214,1222.2535743392946L740.8426888929042,1222.7421712089272L738.6278959984497,1209.1548511491274L734.3229697916589,1210.711111314653L729.4920642552083,1200.9001765351568L722.1026897154455,1192.698599130439L712.0081851660541,1184.3985949292546L696.7839333281561,1176.3403807565628L684.8814376819693,1174.432213744556L680.1738461553601,1171.1580341655354L657.0559896574698,1167.2880122420029L647.7593504132792,1161.0532346069813L638.6372890851051,1150.3776932334004L636.6233855047533,1144.2492199957778L629.9686424230131,1135.4517138295923L626.4879518698923,1127.5773316700652L623.3538627299503,1109.7843969112437L622.6352710278572,1095.5225533881166L624.8470028052238,1075.075402428687L636.6994583951663,1042.7888101749704L636.7610239977346,1033.6853887659672L643.9463483632055,1024.1255857468059L647.3156620231999,1026.8301658068085L653.6756007657823,1020.6554145961709L660.0080730503565,1025.1923141482694L671.1163434347047,1012.2029515417526L667.2998396038336,1004.3855189556489L669.0155191647559,999.6069229354907L680.0005425644981,999.0940781633544L679.3096859440077,988.4001937487046L688.2778690612563,988.9359721289948L697.72802234844,976.1339380197169L689.4113982117758,969.4869501287176L694.6575619544549,964.7636031377479L704.7986550862887,971.4228715587233L713.667307922312,969.2265149232117L716.7910736278812,965.48095548313L708.8122985201138,958.8386455445143L713.4349336878587,955.3249444278772L720.1626617344988,957.4330342003377L723.8999985909956,949.2124949905556L734.1058201754074,957.0210358316835L738.4973013095065,951.6211999286315L729.2050572619405,944.1667250019673L729.2865059947898,940.9672597330064L719.0958807097052,936.365594942763L710.2269163324933,936.7261544311768L705.6116467571513,949.1387721465726L694.087009452129,951.0099312286184L688.229548202801,946.3826903779409L686.3381090543758,929.9838115230668L689.2561400382401,927.6642643337254L691.5148583135011,947.8742736637942L703.5860505785058,946.8051229519187L707.4264848562925,936.445037151745L705.023586135913,929.0210359009507L698.1195813929264,926.4169830334722L687.4289066432409,915.2794081075408L687.9641286035732,907.666922930599L684.39608819631,896.5566825783462L698.57268901889,889.095617251005L701.5518919453771,893.7915637285623L710.719775856972,883.4713607121666L707.699971110286,879.534390374145L714.3252046643645,872.1572280506371L730.6430767716598,838.5070619784819L736.4780310366773,841.202637668146L740.5999379990108,833.4139928054938L734.3396020956011,830.5675146072172L742.3153085111572,817.516008695995L752.0976402968512,807.1860594122554L782.6089529339105,802.6076711885398L794.0064073891662,802.0854935930402L800.4498492980464,812.9039898882911L807.5979336077249,818.7038145130209L811.6657845038924,813.1583511305507L819.9097110780049,822.1408708660456L822.2156268568675,816.7122237363656L809.9131751792812,802.4647871028865L818.9445701384512,805.2060006290267L821.3818200427619,797.3826831029437L819.6098470134111,789.3655759499525L822.6284503059028,775.213740482257L829.4632009468748,756.8415857371583L838.7577078361084,743.3531627403863L844.1727886064326,718.988959972572L840.5970125236198,703.2639159445825L841.1858993779144,698.2176736331021L847.4301487940719,688.938297824323L855.349887544907,682.3759956185531L865.4906747760165,682.0011981452117L873.2934498710214,684.5698055753601L895.207188890676,694.9383982145227L902.4550545557856,710.7264928501972L910.1670736812285,717.817824123922L930.3193967307532,723.2508048936725L935.1990922871153,732.979580388288L943.9763459887064,758.2252705355058L948.1611050398843,764.0453267981648ZM1183.7844080495152,1202.6220830979291L1193.7369791090732,1210.58699399553L1195.2815263661525,1219.36680026885L1192.1680544087671,1222.8729308344773L1183.8435040372901,1221.9743226694409L1165.0663558397916,1205.0958208416996L1177.379447645876,1197.8994880171376ZM1256.8800799318233,1184.3886785709765L1252.4702196561584,1191.3129335726553L1243.2087579443307,1176.7517623190943L1245.1240427499513,1168.5473302811733L1256.7311930300798,1175.071230062691ZM1283.3569393483385,1159.2687044687336L1289.5162731466457,1160.572964356339L1294.2009581103725,1163.9021941190877L1291.523973138242,1170.0940497721313L1275.5428318480042,1168.5403923638805L1275.8224931640552,1161.6676265019632ZM1293.3923738860192,1152.468899206462L1297.060593487973,1161.3417774306727L1294.0502339737754,1162.4468689715723L1289.9749559497234,1159.9948063526535L1275.496064250831,1158.178426331433L1281.5263462787514,1153.4708595811971ZM1190.4821097798772,1151.3521904976806L1195.6196159661035,1149.6727225305804L1201.472264921808,1153.6727857901133L1202.3957973809165,1160.0847558587848L1194.6380286278716,1165.2218297274085L1186.0922418780724,1164.125368602865L1185.4918396160801,1157.9062725935946ZM1375.4223157326003,1133.6845626337163L1379.7908970077474,1141.6320441338466L1395.4136751728088,1147.7909467319841L1411.5656328245695,1147.2818914644013L1420.801076390735,1143.2811085034919L1432.6392281813812,1142.0643084590265L1439.8305237710908,1157.498444447032L1453.7181134723505,1179.5828443632054L1452.6404172204016,1193.8757092833403L1453.9672671936783,1205.0153428817284L1440.1704685681152,1203.9035633981402L1423.643656333264,1208.94638139967L1416.6984101745666,1215.919668883871L1404.550811501199,1218.0218870321114L1389.7390930777424,1214.8840222955914L1371.1606845555602,1218.3770443856774L1345.945605762394,1220.600022785773L1326.2957312096173,1226.3477191654092L1293.18726822921,1233.8030228495481L1265.935837520081,1240.6585540606466L1246.9820610258862,1244.107612889784L1191.3108444622353,1264.9081917267176L1180.591851571703,1271.091896683356L1127.6496786159032,1295.4176130757842L1112.8229909194438,1303.7191689524916L1110.0762319310284,1302.9318448955892L1075.1462821347184,1317.0339437492657L1063.9741944050215,1322.8208818688L1043.8731571832232,1329.740246100322L1032.0598057475586,1335.0745826580678L1018.6425203743593,1339.2106267099443L1000.9763180351547,1340.1631650561758L991.5361132602827,1343.8004813054868L957.1778758707987,1361.6543895595241L926.9318706651275,1376.7273795460933L899.802652532177,1389.5387066185067L900.7607574809986,1371.0183223731583L900.5456428024366,1353.6893138719315L904.814683213108,1343.4305755165115L909.7853266825808,1339.4627436434384L923.6198995349525,1335.4560835459852L938.9867513274285,1322.3354827369913L962.208798442736,1317.7839162241435L977.1363854212918,1309.7886268093134L993.6486436883538,1318.326095610857L1002.6248646016334,1315.3648651959957L1010.8967430655935,1316.166155595536L1021.0500371519487,1308.7631498046394L1022.4637913179552,1303.3004840427602L1029.24332470455,1297.851846607664L1038.9317580093466,1299.5002690407855L1047.2650216352135,1297.6118246221158L1052.964803395987,1299.7021985886968L1059.3606022210317,1296.9477274197852L1069.79493958197,1296.8525014399784L1076.1374218379717,1293.8936221176118L1104.7121891252332,1275.5225473032915L1138.8992840508447,1251.8005436566891L1146.0458932129102,1248.668310648558L1160.3476765039122,1250.6844518051657L1176.517038073645,1249.7043160437606L1205.9906201213112,1239.018238388031L1207.8556228823331,1234.4053470140789L1220.405363035677,1229.6486046375649L1225.3241641356715,1232.1765877449652L1232.509177575379,1226.8639558088616L1262.6381917377935,1208.4891145401925L1264.63586174977,1201.6464606384397L1276.142587059151,1188.7511310079135L1300.5915033069887,1186.3801463552227L1307.2814440959874,1183.5320508760924L1317.3873614896984,1173.6224747246015L1317.8262640968815,1180.0361276309995L1310.5505724245786,1187.7162361157534L1313.746158341839,1192.4410250844667L1329.281886576237,1175.6365482076944L1328.077090301505,1167.340996135259L1336.2367092942168,1156.4118528387044L1342.8757917506364,1150.1789443370362L1352.8428187451013,1150.6576185130107L1354.9034803809182,1153.7973133805208L1352.8551465051655,1166.1550124050991L1343.5868035852857,1183.6317714604666L1339.1108268450298,1182.219378851587L1333.3748387589399,1188.5673665461072L1338.298914237097,1194.9398436725605L1345.8708644737594,1189.2053399876459L1349.032116679351,1181.036451620661L1357.9017571119634,1192.6504045998154L1363.0213112312763,1187.2734688350465L1365.709702652222,1175.1000485305267L1364.8155311590217,1167.281802481506L1369.2181651369096,1151.9332378777617L1360.557873043127,1143.7749655199004L1356.6914171135718,1136.2317751904193ZM1325.975074006024,1120.0775823749718L1330.2120520058907,1128.7486439329514L1336.851413751635,1132.3437722792733L1335.5584929551383,1136.9142022859887L1319.107844042241,1147.656694921723L1312.8766344177639,1148.7263406835846L1313.2939528344386,1139.0855401261651L1323.9741614200057,1134.2016533366113ZM1375.3850654512792,1131.3197852143203L1355.516811794376,1127.3082915957202L1369.9232138063444,1109.7109887284169L1373.4067586999224,1111.1289503053995ZM1192.2449401000986,1107.4082327916403L1192.4202133790593,1103.006381645333L1192.5582368223888,1099.4191086374049L1192.6060310555365,1098.2004081996856L1196.105699944496,1098.9339509379643ZM1290.3870551915397,1085.9734717452666L1301.8683659590083,1094.1308959973394L1289.6364479062345,1101.637102424429L1285.7295653298436,1108.427559309901L1284.5782959196931,1117.7958200205467L1276.9078904247067,1135.7702196656319L1270.3806595200258,1136.2831491757242L1271.291499997331,1127.7513218226086L1263.4868563598675,1108.2698697965534L1265.3120601660933,1098.6429301871685L1277.5681100920158,1089.823971084843ZM1248.7161826920847,1079.1636155885353L1253.5311044026255,1095.608105258114L1251.2859815705478,1108.5893497258076L1254.0028874899558,1120.096188273572L1251.4981590930943,1122.7225824539491L1245.6172442214431,1099.2218593048456L1238.5103776604867,1089.6321781530278L1239.9430160984928,1086.7635572957515L1237.1468070592746,1074.2222550285805L1246.4205193892717,1073.6932082516723ZM1192.1880291204698,1108.8595913857862L1199.710166439808,1095.9122924667026L1200.2679262894126,1088.0670567060297L1195.6110563978434,1085.0871670669294L1199.3096901403255,1066.4433624343364L1193.1669767000285,1045.6833103849203L1196.4266381229315,1044.1516093492974L1207.7017508962335,1055.1781780701713L1217.70878005744,1053.9917985490756L1222.2430877493316,1056.3114160059777L1226.8233230013157,1077.39445837526L1230.4720114880836,1084.6932692927658L1235.3078178577518,1086.8948908132443L1240.340991068968,1095.9256198811636L1232.7165328026283,1103.0241882666014L1242.1615748670927,1112.1087226429663L1237.3682383826979,1115.155361083598L1235.7696364768087,1122.2149698885332L1237.4942612270147,1129.5175197411736L1241.9224153636478,1134.007639208372L1240.4516881957793,1140.0366778630123L1243.8483051915207,1152.7092302028905L1242.5790433942107,1159.1954944206227L1237.0048997000904,1170.3795272096468L1231.3921071373802,1193.4527096077218L1225.685495007883,1203.658337208355L1216.270050099978,1202.2193463824224L1200.7354709093988,1203.9666536363948L1189.328303181647,1201.8382100905583L1190.5876185692644,1196.4807155906747L1197.8727860516049,1191.840634099557L1207.384623005504,1192.841365074797L1217.3246848620088,1183.2727151806175L1221.4266532577617,1175.2237626353453L1221.57029928864,1163.4508993467316L1226.0809321096947,1158.805568969692L1221.6501915042,1147.2903641710582L1214.3987540947774,1133.595176032395L1210.3408394411786,1136.2398786140548L1198.2036852669244,1130.400009497418L1191.2559170235186,1132.6339608015842L1182.2946975184327,1127.5903638167365L1188.7081595150942,1120.377483466029L1186.6884938457592,1113.3482212949893ZM1086.2678301342826,512.0943736190675L1086.232012065607,512.1392442795332L1071.3411087221543,514.3060056539543L1043.8947531639847,508.27033041400136L1037.7031324409886,497.01165749988286L1033.2782717004536,495.9640767489036L1031.5337824755084,487.17327320048935L1034.3879371964963,472.820199342299L1037.6489845038657,469.22636239032727L1047.048276472858,467.31318084325176L1056.010242959492,476.41651532717515L1072.539903201692,481.80268860887736L1090.8972812540046,497.5078032775782L1091.947271762155,505.13771855077357ZM1016.4686196641778,452.33499271486653L1021.5773439448421,458.2302722610766L1012.4490752035088,462.86221526231384ZM1314.2123428673876,248.98929159133695L1317.5204170818224,249.5066665284976L1320.2639619959157,267.6805397181597L1329.8096803250878,276.449757373397L1332.2639009752552,283.0210749342514L1338.1483355679736,289.6213418339612L1333.6643255097679,296.7265392172849L1332.4741902471183,303.41651684208773L1338.0827516029517,314.19211135976366L1336.7660914506287,325.2497225328407L1330.6598641280398,328.5872086152085L1321.8972632130403,317.8406275646703L1321.0680112624168,312.3027760106197L1310.5065599478885,291.90025834707194L1315.2791796700913,281.9967297059193L1311.5148581360577,272.80749200622085L1309.042328752826,256.59492515804595ZM1375.6295414814576,264.37000190417166L1371.3317875019989,271.2823952648032L1373.4438278623343,277.6436738006305L1370.6808963100175,289.241733494855L1365.2485467002202,289.56412977544824L1367.1577345011942,281.38733547224547L1362.841612326628,274.2559032299614L1363.7176226821357,244.16557892691344L1367.4224328767787,243.7639308499929L1382.5113141294023,262.21067642138223ZM1086.9753069205844,81.55643385462463L1124.052209182334,95.9312081207172L1133.612069286071,78.51298621116439L1140.6108442804355,70.42796752456343L1149.7013278891368,70.53249410132412L1164.4230014139248,77.77528681835975L1164.207075186808,82.65215045539662L1173.857654599253,82.74381207025726L1175.2327317120134,90.5569619598391L1179.7047215047246,99.77330388457631L1178.5765290167428,107.6745066504518L1182.9633112539566,119.29508258588612L1212.7035567721227,131.14623815155937L1223.589760417081,134.53923483385006L1224.7356094942334,130.1020775810175L1237.3135073188475,135.0900457802345L1279.558396323865,149.11717638967093L1306.7739367216554,158.93472637201194L1301.4816725838332,169.16042182623642L1294.4780831069083,188.81569338901318L1287.930458280408,192.34246200567577L1284.9863700441406,201.6811155913456L1277.5107648781407,207.6294755936833L1273.943226607094,213.8550500945421L1281.1028199134678,223.42659746101708L1293.43657279732,199.2868530571286L1301.737550386406,195.87986558690318L1306.2522447218855,181.86951853329083L1304.400990100337,176.26388821317232L1313.8289685217414,168.281251278735L1316.3021965050807,174.8368670376076L1326.3123679521486,174.6212612785166L1330.4396812410414,176.9893901088799L1329.5101590763084,184.49065120294108L1322.9336631599535,194.73306241305545L1326.785712976452,198.92684951770934L1333.9689867011568,199.80307718078257L1328.8935623569832,208.47719673224492L1317.591394163766,208.80292586199357L1311.0261527473167,214.31573501150706L1307.507871826108,228.86845580328372L1310.7225287579415,235.89674251669203L1305.0991269186818,241.89687013442745L1301.3292020961553,250.88728830241598L1302.8650465806386,256.34495241657714L1295.8486799270404,257.4536435410555L1289.7907041969663,265.47779858406284L1292.780080956849,269.3531034058251L1292.0966234454695,278.05961878219387L1285.8231089034448,287.1045634081529L1275.6822179790074,268.0171063434682L1277.501553478647,259.9648427728389L1273.5514103980738,237.6509552000789L1264.7930586530592,244.69385762012098L1256.7351340844368,234.7803391502821L1245.7448018347982,232.589287509938L1242.1187508312144,239.40318936418043L1249.2506736935466,241.72480626770994L1252.219710898889,247.8092331440712L1253.3355798052773,264.95717496497673L1242.0534209702728,265.2119839999068L1239.829645614964,273.3993619492685L1244.9755478128614,285.2308130513702L1242.6297674027414,290.9011026371445L1248.0194641861456,294.57145449268864L1248.1573895019083,299.6976168034598L1241.1650077500983,301.94658491105656L1244.6540712623496,307.7122031400795L1246.354759723519,319.76231681593345L1241.750184949193,324.4955812833796L1244.3429975126842,344.37498288354254L1252.080409051733,361.61948862837744L1248.846665296253,364.2876006189035L1250.33003947289,374.65908042385126L1260.2907700788387,369.93741922831396L1267.5961328486783,369.7909675203846L1271.021288696334,388.48433574743103L1293.3357520262248,401.8817702465749L1282.6666966596777,414.79304365214193L1272.4103588141907,414.0229674805596L1281.00799875524,424.8788397119206L1290.648556468924,426.99294446228305L1307.778968090109,436.98840015399037L1313.8765070594325,442.2354953660979L1311.1850196428818,446.3843031433353L1304.7223406058758,446.5749267495703L1299.8149933303307,441.02414862185833L1289.7347397639246,435.883652036835L1280.9856306237943,428.9757868415909L1276.2987938724038,430.8086907711404L1258.464110806977,414.50214318413055L1241.4077573091413,411.3499477724836L1228.487277030164,414.58014619073947L1214.3812457664749,420.59477023076033L1206.0387973734555,420.83994741473L1202.0365173394366,423.6855912132596L1198.0961663545827,432.4726303377538L1199.5365905899519,443.52993128073285L1185.1965655230943,439.9477532718156L1176.0555246801111,419.91132747437223L1178.0811512317775,404.031428521208L1176.0646171992066,390.2043028965127L1171.080195740222,395.87935042078607L1159.8030393882054,422.6504549946694L1151.9597036980313,417.39560858599725L1149.3615628169953,430.2409094548202L1156.1417677924023,441.61385339222034L1152.804007425763,444.2077212652075L1134.4318184582,445.13258902859525L1126.9190857911835,441.4782236648316L1126.2208658518166,431.34312304505147L1120.6008736938752,426.6363274449832L1100.7845327789564,422.846731379861L1095.0019843704313,412.52569439442595L1089.6659870449514,407.07401104681776L1076.476808852201,402.6582804042264L1075.8890683135023,405.36006924920366L1089.8131506163186,413.12954818151775L1099.5019866974812,436.751260852674L1089.4823790527882,455.6151332856971L1086.3677572481397,458.17474324521027L1071.910491403212,456.40605867744307L1068.978871197963,451.0444004087476L1052.9385197529743,453.4237463341269L1039.208217746028,440.4311064397625L1033.938790445081,437.9524174127728L1022.3554326477106,438.45336984758615L1005.8766605602452,443.5706699854927L999.445940784384,449.5586948361888L989.0578941524118,464.8217953532585L979.7479084830752,473.28031762497267L974.1620787995455,472.6711900466471L956.2747666109713,462.4001958470617L953.2982877915013,456.3337866423535L948.9093608341367,452.37778567313217L938.6621048138937,452.2324664137559L932.988930577571,446.07935152656864L923.2729871188778,430.69580659701023L921.6208022078753,423.1645509621012L923.0074383533279,407.78431023083976L922.7875926613344,382.6386897392804L919.7006089990438,341.9143132415775L921.3876975021122,331.4200217432226L928.2243013246805,315.96864448449924L933.4678869466586,298.73835947722546L944.3837289002907,280.18570313524106L950.1519163962655,267.8195048518246L958.4069889079974,254.55576111041592L964.9063144047599,246.9699753273453L983.6184066470826,219.21060316378134L988.509235580563,201.6988617227471L985.9035997123526,195.50364941754378L980.2128322865885,190.40073721396038L957.9047830873768,183.33390103519196L951.6329565731442,175.49878849386005L944.8442202453788,173.74824324942892L955.7491638901889,144.16785314845038L977.7032247229537,68.13607272421359L981.0803117249991,50.82500528823584L984.7273816058531,41.448374454601435ZM1100.6196648937707,1248.7171770858113L1095.418931052095,1250.1249170501542L1091.213228072616,1244.1837129327178L1089.4538380833058,1231.466002147121L1093.1522485284004,1222.1600190147874L1102.6391615409013,1213.4247607054422L1111.0465282659839,1216.9881901447952L1116.5452133776541,1227.5132306743471L1110.9853796899476,1242.3007017293712ZM956.259051756881,1185.41539983658L966.1971748253579,1190.6125775927212L974.8611440946036,1205.0234430185228L974.376304534479,1211.7686870538746L966.9854515204806,1212.4191463942698L961.8094214355217,1203.0340457842976L953.6115327093466,1196.359333416156L949.7686520022429,1189.814403858094ZM1140.737552920329,1193.9192749513022L1127.798356000725,1198.5334818361152L1118.8251091406005,1196.9709903408075L1110.8826709209561,1183.0865812436095L1117.0039964352904,1175.0747838332609L1134.2333121757472,1177.574917381542L1139.8523782121706,1180.8959079009946L1145.3059069846172,1188.5063153725932ZM1093.6893376065304,1160.6517878836894L1089.8798994384656,1161.5625769750623L1086.0671001064923,1154.7080943023611L1089.954578083557,1149.1747800718585ZM1146.2197813454432,1139.8662027250393L1149.0614733079487,1148.8329081180564L1139.098076186011,1155.6664854368137L1132.3143578278023,1151.9383765142702ZM1161.9389733157013,1134.0424174895452L1172.93225621445,1142.4846308248816L1180.4101137862276,1137.2239890628553L1185.1920856427025,1140.5134875059593L1178.190082761051,1155.342500587576L1168.5962972092123,1165.5395798225654L1154.550221617138,1166.0680796927481L1154.1877888715933,1159.2063662784058L1158.5692416647125,1155.4165190249332L1159.299805762577,1137.764661217312ZM1146.9867851852093,1100.3012441370229L1148.575680211094,1107.3405535935308L1145.3288189646455,1111.0756216741574L1129.6482251479392,1113.2514891689643L1128.1484615974464,1108.716240635753L1142.670055302171,1110.1131907355157ZM1096.330069302419,1121.6823449610092L1082.028116296338,1127.1209373337333L1069.2569077170908,1126.7495474555471L1066.2321455601211,1115.9650192681293L1071.570654282681,1106.1497210449015L1079.7299201785722,1099.1912809775095L1102.636770707124,1082.4101309904654L1106.6465876811521,1091.7732033336652L1102.4545542579674,1098.6375516705157L1106.7458293266347,1108.1596237121266L1104.4662077180988,1117.5744314959447ZM1154.9381572192208,1079.5052547882951L1148.8528854858305,1094.4703232019383L1125.7305441686683,1095.1747556414339L1126.1477819001052,1081.7793936326634L1141.593892334899,1085.0246927224507ZM1139.4849506238102,1068.9099667662522L1131.2002439004093,1076.5788590852753L1124.2619700824919,1074.5157540089858L1127.5399895394198,1066.0889067167009ZM1157.617687940637,1057.1878678619978L1152.8634449389006,1066.8593757430208L1147.8941291195865,1062.199475179572L1152.450419525519,1049.2921791040571L1156.842506292926,1044.758136477467L1163.4101967049583,1052.1297752046376Z"/></g></svg>